# AST/ASF file generated using VICON BodyLanguage
# -----------------------------------------------
:version 1.10
:name VICON
:units
  mass 1.0
  length 0.45
  angle deg
:documentation
   .ast/.asf automatically generated from VICON data using
   VICON BodyBuilder and BodyLanguage model FoxedUp or BRILLIANT.MOD
:root
   order TX TY TZ RX RY RZ
   axis XYZ
   position 0 0 0  
   orientation 0 0 0 
:bonedata
  begin
     id 1 
     name lhipjoint
     direction 0.570549 -0.739093 0.358072 
     length 2.41801 
     axis 0 0 0  XYZ
  end
  begin
     id 2 
     name lfemur
     direction 0.34202 -0.939693 0  
     length 7.44434  
     axis 0 0 20  XYZ
    dof rx ry rz
    limits (-160.0 20.0)
           (-70.0 70.0)
           (-60.0 70.0)
  end
  begin
     id 3 
     name ltibia
     direction 0.34202 -0.939693 0   
     length 7.60047   
     axis 0 0 20   XYZ
    dof rx
    limits (-10.0 170.0)
  end
  begin
     id 4 
     name lfoot
     direction 0.0909041 -0.249757 0.964032   
     length 2.03437   
     axis -90 7.62852e-016 20   XYZ
    dof rx rz
    limits (-45.0 90.0)
           (-70.0 20.0)
  end
  begin
     id 5 
     name ltoes
     direction 1.53547e-011 -4.2174e-011 1   
     length 1.02054   
     axis -90 7.62852e-016 20   XYZ
    dof rx
    limits (-90.0 20.0)
  end
  begin
     id 6 
     name rhipjoint
     direction -0.558096 -0.746754 0.361784   
     length 2.3932  
     axis 0 0 0  XYZ 
  end
  begin
     id 7 
     name rfemur
     direction -0.34202 -0.939693 0   
     length 7.3886   
     axis 0 0 -20   XYZ
    dof rx ry rz
    limits (-160.0 20.0)
           (-70.0 70.0)
           (-70.0 60.0)
  end
  begin
     id 8 
     name rtibia
     direction -0.34202 -0.939693 0   
     length 7.4839   
     axis 0 0 -20   XYZ
    dof rx
    limits (-10.0 170.0)
 end
 begin
     id 9 
     name rfoot
     direction -0.114619 -0.314914 0.942174   
     length 2.25127  
     axis -90 -7.62852e-016 -20   XYZ
    dof rx rz
    limits (-45.0 90.0)
           (-20.0 70.0)
  end
  begin
     id 10 
     name rtoes
     direction -1.53518e-011 -4.21881e-011 1   
     length 1.11821   
     axis -90 -7.62852e-016 -20   XYZ
    dof rx
    limits (-90.0 20.0)
  end
  begin
     id 11 
     name lowerback
     direction -0.00902269 0.996426 -0.0839821   
     length 2.25052   
     axis 0 0 0   XYZ
    dof rx ry rz
    limits (-20.0 45.0)
           (-30.0 30.0)
           (-30.0 30.0)
  end
  begin
     id 12 
     name upperback
     direction 0.0370973 0.999169 -0.0168941   
     length 2.24876   
     axis 0 0 0   XYZ
    dof rx ry rz
    limits (-20.0 45.0)
           (-30.0 30.0)
           (-30.0 30.0)
  end
  begin
     id 13 
     name thorax
     direction 0.0402726 0.998931 0.0227027   
     length 2.26408   
     axis 0 0 0   XYZ
    dof rx ry rz
    limits (-20.0 45.0)
           (-30.0 30.0)
           (-30.0 30.0)
  end
  begin
     id 14 
     name lowerneck
     direction -0.0733697 0.98508 0.155675   
     length 1.58204   
     axis 0 0 0   XYZ
    dof rx ry rz
    limits (-20.0 45.0)
           (-30.0 30.0)
           (-30.0 30.0)
  end
  begin
     id 15 
     name upperneck
     direction 0.0426554 0.993501 -0.105526   
     length 1.61222   
     axis 0 0 0   XYZ
    dof rx ry rz
    limits (-20.0 45.0)
           (-30.0 30.0)
           (-30.0 30.0)
  end
  begin
     id 16
     name head
     direction 0.020792 0.998384 -0.0528868  
     length 1.61527  
     axis 0 0 0   XYZ
    dof rx ry rz
    limits (-20.0 45.0)
           (-30.0 30.0)
           (-30.0 30.0)
  end
  begin
     id 17 
     name lclavicle
     direction 0.967109 0.155462 -0.201325  
     length 3.59357  
     axis 0 0 0   XYZ
    dof ry rz
    limits (-20.0 10.0)
           (0.0 20.0)
  end
  begin
     id 18 
     name lhumerus
     direction 1 -4.48968e-011 2.38195e-027   
     length 5.38154   
     axis 180 -30 -90   XYZ
    dof rx ry rz
    limits (-60.0 90.0)
           (-90.0 90.0)
           (-90.0 90.0)
  end
  begin
     id 19
     name lradius
     direction 1 -4.48961e-011 4.85371e-027   
     length 3.33312   
     axis 180 -30 -90   XYZ
    dof rx
    limits (-10.0 170.0)
  end
  begin
     id 20
     name lwrist
     direction 1 -4.48961e-011 4.76515e-027   
     length 1.66656   
     axis -3.27502e-015 90 90   XYZ
    dof ry
    limits (-180.0 0.0)
 end
  begin
     id 21 
     name lhand
     direction 1 -4.48951e-011 9.53074e-027   
     length 0.710789   
     axis -6.08098e-015 90 90   XYZ
    dof rx rz
    limits (-90.0 90.0)
           (-45.0 45.0)
  end
  begin
     id 22 
     name lfingers
     direction 1 -4.48953e-011 1.90613e-026   
     length 0.573057   
     axis -1.21619e-014 90 90   XYZ
    dof rx
    limits (0.0 90.0)
  end
  begin
     id 23
     name lthumb
     direction 0.707107 -6.34973e-011 0.707107   
     length 0.822798   
     axis -90 45 -9.86923e-015   XYZ
    dof rx rz
    limits (-45.0 45.0)
           (-45.0 45.0)
  end
  begin
     id 24 
     name rclavicle
     direction -0.9585 0.265289 -0.104398   
     length 3.42039  
     axis 0 0 0   XYZ 
    dof ry rz
    limits (-10.0 20.0)
           (-20.0 0.0)
  end
  begin
     id 25 
     name rhumerus
     direction -1 -4.48977e-011 2.21478e-027  
     length 5.16954   
     axis 180 30 90   XYZ
    dof rx ry rz
    limits (-90.0 60.0)
           (-90.0 90.0)
           (-90.0 90.0)
  end
  begin
     id 26 
     name rradius
     direction -1 -4.48967e-011 5.63677e-027   
     length 3.38287   
     axis 180 30 90   XYZ
    dof rx
    limits (-10.0 170.0)
  end
  begin
     id 27 
     name rwrist
     direction -1 -4.48967e-011 4.76501e-027   
     length 1.69144   
     axis -3.27502e-015 -90 -90   XYZ
    dof ry
    limits (-180.0 0.0)
  end
  begin
     id 28
     name rhand
     direction -1 -4.48902e-011 9.53292e-027   
     length 0.817967   
     axis -6.08098e-015 -90 -90   XYZ
    dof rx rz
    limits (-90.0 90.0)
           (-45.0 45.0)
  end
  begin
     id 29
     name rfingers
     direction -1 -4.49012e-011 1.90561e-026   
     length 0.659466   
     axis -1.21619e-014 -90 -90   XYZ
    dof rx
    limits (0.0 90.0)
  end
  begin
     id 30
     name rthumb
     direction -0.707107 -6.34944e-011 0.707107   
     length 0.946865   
     axis -90 -45 9.86923e-015   XYZ
    dof rx rz
    limits (-45.0 45.0)
           (-45.0 45.0)
  end
:hierarchy
  begin
    root lhipjoint rhipjoint lowerback
    lhipjoint lfemur
    lfemur ltibia
    ltibia lfoot
    lfoot ltoes
    rhipjoint rfemur
    rfemur rtibia
    rtibia rfoot
    rfoot rtoes
    lowerback upperback
    upperback thorax
    thorax lowerneck lclavicle rclavicle
    lowerneck upperneck
    upperneck head
    lclavicle lhumerus
    lhumerus lradius
    lradius lwrist
    lwrist lhand lthumb
    lhand lfingers
    rclavicle rhumerus
    rhumerus rradius
    rradius rwrist
    rwrist rhand rthumb
    rhand rfingers
  end

#!OML:ASF F:\twosubjects\two\wednesday\Session 1\Justin1.ASF
:FULLY-SPECIFIED
:DEGREES
422
root 7.77564 15.8497 -23.0914 18.6065 56.3151 -350.281
lowerback 22.1779 -0.411842 2.91183
upperback 1.7743 0.0463644 -2.02655
thorax -10.475 -0.126235 -3.94403
lowerneck -8.03111 -14.6808 -20.0786
upperneck -6.41033 -18.0253 22.0819
head 3.42515 -8.50645 8.52774
rclavicle 9.34288e-015 2.38542e-014
rhumerus 54.2897 -58.724 -60.5152
rradius 25.687
rwrist -43.1016
rhand 74.2573 -5.76696
rfingers 7.12502
rthumb 71.5601 74.2157
lclavicle 9.34288e-015 2.38542e-014
lhumerus -22.353 33.9954 8.32265
lradius 24.4472
lwrist -12.4264
lhand -6.68649 30.2262
lfingers 7.12502
lthumb 19.1723 59.3012
rfemur -33.7946 12.3657 4.00315
rtibia 84.8301
rfoot 1.39269 17.8714
rtoes 4.57849
lfemur -21.2898 7.69378 -4.86183
ltibia 40.2485
lfoot -17.7364 -0.824803
ltoes -49.6588
423
root 8.12381 15.8989 -23.0821 19.1783 54.4298 -350.168
lowerback 21.7055 -0.337256 3.02701
upperback 1.66374 0.18013 -1.75907
thorax -10.3286 -0.0640777 -3.74476
lowerneck -8.7919 -14.4509 -19.5659
upperneck -5.62856 -17.6767 21.0891
head 3.53243 -8.30326 8.13581
rclavicle 8.3092e-014 -2.3059e-014
rhumerus 56.3302 -58.1274 -62.2477
rradius 25.7887
rwrist -41.4792
rhand 74.6197 -2.64527
rfingers 7.12502
rthumb 71.35 78.2178
lclavicle 8.3092e-014 -2.3059e-014
lhumerus -21.9487 33.6665 8.44715
lradius 25.133
lwrist -11.4009
lhand -6.55432 29.9074
lfingers 7.12502
lthumb 19.2994 58.9698
rfemur -36.3611 8.62456 5.09052
rtibia 86.2369
rfoot -0.396076 17.6523
rtoes -1.48707
lfemur -19.922 8.50797 -6.0852
ltibia 39.9899
lfoot -17.9009 -0.119795
ltoes -49.4756
424
root 8.46488 15.9506 -23.0654 20.7977 52.2794 -348.835
lowerback 20.9028 0.0816646 2.10572
upperback 1.88264 0.534599 -1.3591
thorax -9.62469 0.169972 -2.85618
lowerneck -9.68043 -14.5146 -19.9678
upperneck -5.29877 -17.5789 20.6698
head 3.72848 -8.20171 8.01847
rclavicle -8.0309e-014 5.88403e-014
rhumerus 58.3085 -57.6973 -62.837
rradius 25.8895
rwrist -40.285
rhand 75.1117 0.669142
rfingers 7.12502
rthumb 71.0577 82.6951
lclavicle -8.0309e-014 5.88403e-014
lhumerus -21.0739 34.1657 9.72392
lradius 25.6154
lwrist -11.086
lhand -6.56049 29.4697
lfingers 7.12502
lthumb 19.2935 58.5327
rfemur -39.1607 4.57299 5.60725
rtibia 87.425
rfoot -1.46595 16.9266
rtoes -0.878725
lfemur -18.7831 9.45305 -8.26824
ltibia 39.7252
lfoot -17.6915 0.345879
ltoes -48.2916
425
root 8.80363 16.0152 -23.0416 22.4322 50.2597 -347.389
lowerback 20.4792 0.478582 1.37652
upperback 1.88056 0.899 -1.14997
thorax -9.38601 0.378611 -2.30214
lowerneck -10.3114 -14.7528 -20.4685
upperneck -4.74524 -17.7879 20.4544
head 4.04256 -8.26278 7.93528
rclavicle -4.81059e-014 1.82882e-014
rhumerus 55.7457 -56.6678 -58.6715
rradius 26.5683
rwrist -41.7125
rhand 74.406 2.96768
rfingers 7.12502
rthumb 71.4745 83.3139
lclavicle -4.81059e-014 1.82882e-014
lhumerus -19.7767 34.8488 11.1021
lradius 25.8448
lwrist -11.6028
lhand -6.66908 28.6722
lfingers 7.12502
lthumb 19.1891 57.7455
rfemur -41.8203 0.78815 6.54459
rtibia 88.2311
rfoot -2.96702 15.3722
rtoes -0.360917
lfemur -17.6893 9.6758 -10.5684
ltibia 39.3679
lfoot -17.2085 1.01189
ltoes -47.7752
426
root 9.14652 16.1 -22.999 23.6878 48.0912 -346.14
lowerback 20.5152 0.791327 0.695878
upperback 1.61809 1.14078 -1.20382
thorax -9.69706 0.510299 -2.04525
lowerneck -10.3247 -14.7144 -20.4614
upperneck -4.24011 -17.7821 20.1442
head 4.15326 -8.26604 7.82498
rclavicle 5.04913e-014 -1.11319e-014
rhumerus 53.3248 -55.5343 -55.5578
rradius 27.319
rwrist -42.8665
rhand 72.6999 4.31316
rfingers 7.12502
rthumb 72.4083 80.2774
lclavicle 5.04913e-014 -1.11319e-014
lhumerus -18.6192 34.453 11.7965
lradius 26.0627
lwrist -11.9332
lhand -6.71898 28.1505
lfingers 7.12502
lthumb 19.1411 57.2286
rfemur -44.1223 -2.33012 7.99496
rtibia 88.4185
rfoot -4.85176 13.6345
rtoes 0.919908
lfemur -16.2625 9.60977 -12.7926
ltibia 38.7136
lfoot -16.2718 1.73634
ltoes -48.7843
